# xmcd
#
# Track frame offsets:
#	150
#	16718
#	67002
#	96315
#	156107
#	200523
#	246768
#	274816
#	295983
#	298581
#
# Disc length: 4398 seconds
#
# Revision: 2
# Processed by: cddbd v1.5.2PL0 Copyright (c) Steve Scherf et al.
# Submitted via: audiograbber 1.83.01
#
DISCID=94112c0a
DTITLE=Randy Hansen - European Tour 2008 - Hendrix Live
DYEAR=2008
DGENRE=Rock
TTITLE0=Can You See Me
TTITLE1=Hey Joe - Freedom
TTITLE2=Power of Soul
TTITLE3=Machine Gun
TTITLE4=Are You Experienced?
TTITLE5=Voodoo Chile
TTITLE6=Foxy Lady
TTITLE7=Purple Haze
TTITLE8=Introduction
TTITLE9=Third Stone from the Sun
EXTD=
EXTT0=
EXTT1=
EXTT2=
EXTT3=
EXTT4=
EXTT5=
EXTT6=
EXTT7=
EXTT8=
EXTT9=
PLAYORDER=
